# xmcd
#
# Track frame offsets:
#	150
#	14145
#	28733
#	41363
#	62983
#	74610
#	90509
#	103315
#	116587
#	133060
#	150528
#	163318
#
# Disc length: 2336 seconds
#
# Revision: 0
# Processed by: cddbd v1.5.1PL0 Copyright (c) Steve Scherf et al.
# Submitted via: dBpowerAMP V4.0
#
DISCID=ad091e0c
DTITLE=Various Artist - Up and Left Me Blues
DYEAR=1900
DGENRE=Blues
TTITLE0=Forty days and forty nights - Muddy Waters
TTITLE1=Don't go baby - John Lee Hooker
TTITLE2=Little low woman blues - Sonny Boy Williamson
TTITLE3=Feelin' low down - Big Bill Broonzy
TTITLE4=How long. how long blues - Ray Charles
TTITLE5=Baby, what's wrong with you - Mississippi John Hurt
TTITLE6=All or nothin' blues - Dinah Washington
TTITLE7=Roberta - Leadbelly
TTITLE8=Just let me be - Memphis Slim
TTITLE9=Evil ways - Otis Spann
TTITLE10=I used to be your sweet mama - Bessie Smith
TTITLE11=Trouble blues - Charles Brown
EXTD=
EXTT0=
EXTT1=
EXTT2=
EXTT3=
EXTT4=
EXTT5=
EXTT6=
EXTT7=
EXTT8=
EXTT9=
EXTT10=
EXTT11=
PLAYORDER=
